<svg width="453" height="300" viewBox="0 0 453 300" fill="none" xmlns="http://www.w3.org/2000/svg">
<g clip-path="url(#clip0_0_2142)">
<g clip-path="url(#clip1_0_2142)">
<rect x="282.663" y="157.146" width="8.65677" height="5.62226" transform="rotate(-92 282.663 157.146)" fill="#755FFE"/>
<rect x="134.576" y="1.52982" width="3.6369" height="5.62226" transform="rotate(154 134.576 1.52982)" fill="#BA3E03" fill-opacity="0.75"/>
<rect x="89.3975" y="29.1391" width="6.14683" height="3.11232" transform="rotate(170 89.3975 29.1391)" fill="#03A3F5"/>
<rect x="39.1987" y="1.52982" width="16.1866" height="5.62226" transform="rotate(32 39.1987 1.52982)" fill="#C9FCBE" fill-opacity="0.35"/>
<rect x="395.609" y="99.4173" width="18.6965" height="3.11232" transform="rotate(154 395.609 99.4173)" fill="#4BC8EF"/>
<rect x="109.477" y="162.166" width="3.6369" height="3.11232" transform="rotate(-112 109.477 162.166)" fill="#FC9E1C" fill-opacity="0.9"/>
<rect x="332.861" y="94.3975" width="13.6766" height="3.11232" transform="rotate(-70 332.861 94.3975)" fill="#FF21FB" fill-opacity="0.85"/>
<rect x="4.05957" y="297.702" width="11.1667" height="5.62226" transform="rotate(-169 4.05957 297.702)" fill="#BA3E03" fill-opacity="0.65"/>
<rect x="137.086" y="36.6689" width="16.1866" height="3.11232" transform="rotate(45 137.086 36.6689)" fill="#FFED36" fill-opacity="0.65"/>
<rect x="270.113" y="247.504" width="8.65677" height="3.11232" transform="rotate(-25 270.113 247.504)" fill="#F54721"/>
<rect x="342.901" y="250.013" width="21.2064" height="3.11232" transform="rotate(11 342.901 250.013)" fill="#FC9E1C" fill-opacity="0.6"/>
<rect x="217.404" y="182.245" width="3.6369" height="5.62226" transform="rotate(58 217.404 182.245)" fill="#DCBCFA"/>
<rect x="189.794" y="74.3179" width="16.1866" height="5.62226" transform="rotate(-19 189.794 74.3179)" fill="#F62584" fill-opacity="0.35"/>
<rect x="51.7485" y="79.3378" width="3.6369" height="8.13219" transform="rotate(64 51.7485 79.3378)" fill="#BA3E03" fill-opacity="0.9"/>
<rect x="99.437" y="242.484" width="18.6965" height="5.62226" transform="rotate(23 99.437 242.484)" fill="#755FFE" fill-opacity="0.85"/>
<rect x="157.166" y="36.6689" width="18.6965" height="5.62226" transform="rotate(-114 157.166 36.6689)" fill="#BA3E03" fill-opacity="0.85"/>
<rect x="106.967" y="79.3378" width="18.6965" height="5.62226" transform="rotate(145 106.967 79.3378)" fill="#4BC8EF" fill-opacity="0.6"/>
<rect x="332.861" y="242.484" width="16.1866" height="8.13219" transform="rotate(-130 332.861 242.484)" fill="#4BC8EF" fill-opacity="0.9"/>
<rect x="89.3975" y="147.106" width="3.6369" height="8.13219" transform="rotate(-101 89.3975 147.106)" fill="#4BC8EF" fill-opacity="0.9"/>
<rect x="375.53" y="111.967" width="16.1866" height="3.11232" transform="rotate(-162 375.53 111.967)" fill="#BA3E03" fill-opacity="0.85"/>
<rect x="117.007" y="137.066" width="3.6369" height="5.62226" transform="rotate(1 117.007 137.066)" fill="#9AF5FC" fill-opacity="0.9"/>
<rect x="418.199" y="217.384" width="3.6369" height="3.11232" transform="rotate(81 418.199 217.384)" fill="#C9FCBE"/>
<circle cx="263.882" cy="75.6168" r="3.80883" fill="#9AF5FC" fill-opacity="0.35"/>
<circle cx="443.342" cy="61.8122" r="2.55386" fill="#FF21FB" fill-opacity="0.65"/>
<circle cx="335.415" cy="132.09" r="2.55386" fill="#FC9E1C" fill-opacity="0.45"/>
<circle cx="406.948" cy="258.842" r="1.29889" fill="#9AF5FC" fill-opacity="0.9"/>
<circle cx="430.793" cy="16.6334" r="2.55386" fill="#4BC8EF" fill-opacity="0.6"/>
<circle cx="139.64" cy="91.9315" r="2.55386" fill="#03A3F5" fill-opacity="0.45"/>
<circle cx="427.027" cy="236.253" r="1.29889" fill="#DCBCFA" fill-opacity="0.75"/>
<circle cx="253.842" cy="233.743" r="1.29889" fill="#03A3F5" fill-opacity="0.85"/>
<circle cx="218.703" cy="221.193" r="1.29889" fill="#F54721" fill-opacity="0.9"/>
<circle cx="110.775" cy="236.253" r="1.29889" fill="#F54721" fill-opacity="0.9"/>
<circle cx="1.59341" cy="99.4613" r="2.55386" fill="#755FFE" fill-opacity="0.9"/>
<circle cx="347.965" cy="36.7129" r="2.55386" fill="#DCBCFA" fill-opacity="0.35"/>
<circle cx="213.683" cy="125.816" r="3.80883" fill="#4BC8EF" fill-opacity="0.85"/>
<circle cx="414.478" cy="10.3585" r="3.80883" fill="#480CA7"/>
<circle cx="44.2624" cy="177.269" r="2.55386" fill="#F62584" fill-opacity="0.35"/>
<circle cx="143.405" cy="135.855" r="1.29889" fill="#03A3F5" fill-opacity="0.6"/>
<circle cx="165.995" cy="231.233" r="1.29889" fill="#F62584" fill-opacity="0.35"/>
<circle cx="334.16" cy="206.134" r="3.80883" fill="#FFED36" fill-opacity="0.6"/>
<circle cx="138.385" cy="37.9678" r="3.80883" fill="#C9FCBE" fill-opacity="0.45"/>
<circle cx="148.425" cy="203.624" r="1.29889" fill="#755FFE" fill-opacity="0.85"/>
<circle cx="368.044" cy="184.799" r="2.55386" fill="#4BC8EF" fill-opacity="0.65"/>
<circle cx="177.289" cy="174.759" r="2.55386" fill="#FF21FB" fill-opacity="0.45"/>
<circle cx="202.388" cy="64.3221" r="2.55386" fill="#C9FCBE" fill-opacity="0.6"/>
<path d="M-2.17515 -5.3973L0.216296 0.832636L-6.37471 -0.211277L-2.17515 -5.3973Z" fill="#C9FCBE" fill-opacity="0.85"/>
<path d="M141.147 154.302L132.992 150.499L136.795 142.344L144.95 146.147L141.147 154.302Z" fill="#755FFE" fill-opacity="0.35"/>
<path d="M161.326 147.748L159.412 143.643L162.724 140.554L166.686 142.75L165.822 147.196L161.326 147.748Z" fill="#4BC8EF" fill-opacity="0.6"/>
<path d="M168.188 273.485L172.026 273.82L173.654 277.312L171.444 280.468L167.606 280.132L165.978 276.641L168.188 273.485Z" fill="#F54721" fill-opacity="0.65"/>
<path d="M212.644 291.384L211.402 288.594L213.672 286.55L216.316 288.077L215.681 291.064L212.644 291.384Z" fill="#9AF5FC" fill-opacity="0.9"/>
<path d="M116.888 243.499L118.451 245.573L117.436 247.965L114.858 248.281L113.294 246.207L114.309 243.815L116.888 243.499Z" fill="#9DED1A" fill-opacity="0.9"/>
<path d="M439.466 186.862L436.1 183.832L437.943 179.694L442.447 180.168L443.389 184.598L439.466 186.862Z" fill="#480CA7" fill-opacity="0.6"/>
<path d="M241.834 181.02L238.576 184.166L234.577 182.039L235.364 177.579L239.849 176.949L241.834 181.02Z" fill="#C9FCBE" fill-opacity="0.9"/>
<path d="M372.045 127.033L376.085 121.044L382.073 125.083L378.034 131.072L372.045 127.033Z" fill="#9AF5FC" fill-opacity="0.85"/>
<path d="M162.253 160.998L159.655 164.708L155.324 163.384L155.245 158.855L159.527 157.381L162.253 160.998Z" fill="#FFED36" fill-opacity="0.45"/>
<path d="M173.365 149.808L173.234 157.287L166.081 159.474L161.791 153.347L166.293 147.373L173.365 149.808Z" fill="#4BC8EF"/>
<path d="M21.7135 177.047L26.9964 181.973L22.07 187.256L16.7871 182.33L21.7135 177.047Z" fill="#FFED36" fill-opacity="0.35"/>
<path d="M197.592 84.4385L195.273 88.9896L190.172 89.2569L187.39 84.9732L189.709 80.4222L194.81 80.1549L197.592 84.4385Z" fill="#9AF5FC" fill-opacity="0.35"/>
<path d="M457.129 160.588L452.459 157.782L455.265 153.111L459.935 155.917L457.129 160.588Z" fill="#BA3E03" fill-opacity="0.9"/>
<path d="M285.526 182.177L291.872 184.239L286.913 188.704L285.526 182.177Z" fill="#03A3F5" fill-opacity="0.9"/>
<path d="M157.189 271.541L154.456 263.127L163.109 264.966L157.189 271.541Z" fill="#480CA7" fill-opacity="0.9"/>
<path d="M350.48 32.2715L353.937 40.4151L345.156 39.3369L350.48 32.2715Z" fill="#4BC8EF"/>
<path d="M72.1276 293.328L69.6766 292.631L68.6358 294.957L68.0147 292.485L65.4798 292.747L67.3097 290.973L65.8156 288.909L68.2665 289.607L69.3074 287.281L69.9284 289.752L72.4633 289.49L70.6335 291.264L72.1276 293.328Z" fill="#FC9E1C" fill-opacity="0.9"/>
<path d="M309.349 9.82042L309.511 6.90311L307.665 4.63848L310.583 4.801L312.847 2.95477L312.685 5.87208L314.531 8.13671L311.614 7.97419L309.349 9.82042Z" fill="#FFED36" fill-opacity="0.45"/>
<path d="M327.39 174.764L325.693 175.036L325.72 176.754L324.636 175.42L323.162 176.303L323.774 174.697L322.273 173.862L323.97 173.59L323.943 171.872L325.027 173.205L326.501 172.323L325.888 173.928L327.39 174.764Z" fill="#FC9E1C" fill-opacity="0.6"/>
<path d="M137.448 44.2613L135.774 45.2998L135.237 47.1953L134.199 45.5211L132.303 44.9844L133.977 43.9459L134.514 42.0503L135.552 43.7245L137.448 44.2613Z" fill="#9AF5FC" fill-opacity="0.35"/>
<path d="M262.661 260.28L263.079 261.946L264.789 261.77L263.555 262.966L264.562 264.358L262.91 263.887L262.208 265.455L261.789 263.789L260.08 263.965L261.314 262.769L260.306 261.378L261.959 261.848L262.661 260.28Z" fill="#9DED1A" fill-opacity="0.65"/>
<path d="M162.118 96.5542L163.349 94.323L161.317 92.7856L163.865 92.7365L164.18 90.2076L165.496 92.3896L167.844 91.3982L166.613 93.6293L168.645 95.1668L166.097 95.2159L165.782 97.7448L164.465 95.5628L162.118 96.5542Z" fill="#03A3F5" fill-opacity="0.9"/>
<path d="M187.2 190.706L187.297 192.674L188.694 194.062L186.727 194.159L185.338 195.556L185.242 193.589L183.844 192.2L185.812 192.104L187.2 190.706Z" fill="#C9FCBE" fill-opacity="0.65"/>
<path d="M421.337 51.7392L419.86 52.789L420.193 54.5707L418.738 53.4898L417.147 54.3577L417.725 52.6398L416.408 51.3945L418.221 51.4138L418.998 49.7762L419.54 51.506L421.337 51.7392Z" fill="#F62584" fill-opacity="0.75"/>
<path d="M115.95 245.13L117.223 243.84L116.585 242.143L118.206 242.955L119.622 241.824L119.351 243.616L120.864 244.614L119.076 244.91L118.595 246.657L117.761 245.048L115.95 245.13Z" fill="#9DED1A" fill-opacity="0.65"/>
<path d="M373.07 49.8411L374.19 53.5491L377.517 55.5332L373.809 56.6535L371.825 59.9804L370.704 56.2723L367.378 54.2882L371.086 53.1679L373.07 49.8411Z" fill="#4BC8EF"/>
<path d="M319.163 94.3544L315.803 94.7138L315.679 98.09L313.688 95.3604L310.702 96.941L312.071 93.852L309.209 92.0564L312.568 91.6971L312.692 88.3209L314.683 91.0505L317.669 89.4699L316.301 92.5588L319.163 94.3544Z" fill="#03A3F5" fill-opacity="0.9"/>
<path d="M148.38 193.418L146.237 195.404L145.992 198.315L144.006 196.172L141.095 195.927L143.238 193.941L143.483 191.029L145.469 193.173L148.38 193.418Z" fill="#DCBCFA" fill-opacity="0.45"/>
<path d="M369.826 169.34L367.613 167.813L365.3 169.182L366.068 166.606L364.051 164.828L366.739 164.763L367.806 162.296L368.699 164.831L371.375 165.084L369.239 166.717L369.826 169.34Z" fill="#9DED1A" fill-opacity="0.75"/>
<path d="M331.866 256.909L334.933 258.723L337.867 256.699L337.089 260.177L339.92 262.341L336.372 262.676L335.189 266.038L333.774 262.767L330.211 262.68L332.884 260.324L331.866 256.909Z" fill="#4BC8EF" fill-opacity="0.9"/>
<path d="M145.875 80.1389L146.473 82.9988L148.842 84.7085L145.982 85.3065L144.272 87.676L143.674 84.816L141.305 83.1064L144.165 82.5083L145.875 80.1389Z" fill="#4BC8EF" fill-opacity="0.6"/>
<path d="M398.032 149.571L397.269 147.755L395.48 146.928L397.296 146.164L398.123 144.376L398.887 146.192L400.675 147.019L398.859 147.782L398.032 149.571Z" fill="#BA3E03" fill-opacity="0.75"/>
<path d="M60.3727 29.4704L61.4281 28.1144L60.2368 26.8761L61.9388 27.1121L62.4155 25.4613L63.0621 27.0533L64.7301 26.6407L63.6747 27.9966L64.8661 29.2349L63.1641 28.9989L62.6874 30.6497L62.0408 29.0578L60.3727 29.4704Z" fill="#F62584" fill-opacity="0.85"/>
<path d="M377.443 189.731L380.57 192.018L384.421 191.601L382.134 194.727L382.551 198.578L379.425 196.291L375.574 196.708L377.861 193.582L377.443 189.731Z" fill="#FFED36" fill-opacity="0.75"/>
<path d="M241.765 164.066L240.961 165.584L242.349 166.597L240.632 166.66L240.449 168.368L239.536 166.913L237.965 167.609L238.769 166.09L237.381 165.078L239.098 165.015L239.281 163.306L240.194 164.762L241.765 164.066Z" fill="#03A3F5" fill-opacity="0.65"/>
<path d="M62.9707 189.331L61.3353 184.791L57.0673 182.54L61.607 180.905L63.8584 176.637L65.4938 181.177L69.7617 183.428L65.222 185.063L62.9707 189.331Z" fill="#FFED36" fill-opacity="0.35"/>
<path d="M33.1425 289.168L31.4338 287.277L29.3185 288.698L30.1015 286.273L27.8131 285.152L30.3048 284.617L30.1317 282.075L31.8404 283.966L33.9557 282.544L33.1727 284.97L35.4611 286.091L32.9694 286.625L33.1425 289.168Z" fill="#9DED1A" fill-opacity="0.75"/>
<path d="M416.694 170.732L414.151 170.559L413.617 173.051L412.496 170.762L410.07 171.545L411.492 169.43L409.601 167.721L412.143 167.894L412.678 165.403L413.799 167.691L416.224 166.908L414.803 169.023L416.694 170.732Z" fill="#C9FCBE" fill-opacity="0.6"/>
<path d="M432.157 61.8783L435.995 61.3519L438.475 58.3763L439.001 62.214L441.977 64.6941L438.139 65.2205L435.659 68.1961L435.132 64.3584L432.157 61.8783Z" fill="#FFED36" fill-opacity="0.65"/>
</g>
<path d="M337.88 115.978L338.054 115.933L276.275 101.106C288.459 99.8017 300.62 95.7758 309.308 87.0128C313.979 82.3013 317.486 75.9772 317.918 69.2641C318.326 62.9172 316.319 56.3569 311.456 52.051C308.835 49.7306 305.923 47.9631 302.505 47.0593C297.975 45.8609 293.182 46.1053 288.669 47.2526C280.75 49.266 274.323 54.2284 268.55 59.793C267.342 60.9572 266.149 62.1378 264.933 63.2932C264.369 63.8294 263.8 64.3603 263.222 64.8814C262.955 65.1217 262.686 65.36 262.415 65.5957C262.235 65.753 262.051 65.9068 261.871 66.0637C261.182 66.6611 262.219 65.8095 262.449 65.5942C262.025 66.0841 261.3 66.4915 260.783 66.8728C260.115 67.3648 259.435 67.8395 258.742 68.2959C258.142 68.6912 257.533 69.0729 256.916 69.4413C256.75 69.5405 256.582 69.6369 256.415 69.7338L256.395 69.7442C255.074 70.4401 253.722 71.077 252.344 71.6542C251.76 71.8992 251.168 72.1246 250.577 72.3492C250.303 72.4395 250.03 72.5309 249.755 72.6169C248.838 72.9029 247.911 73.155 246.98 73.3917C248.63 71.0891 250.176 68.7144 251.533 66.2152C255.571 58.7741 258.494 49.9953 257.121 41.4269C256.491 37.4974 254.3 33.7472 250.464 32.2252C245.258 30.1593 238.86 32.3245 234.928 36.0211C231.316 39.4172 228.926 43.6729 227.26 48.243C227.071 47.5608 226.885 46.8776 226.675 46.2018C225.542 42.5524 224.033 38.9313 221.709 35.8676C220.579 34.3764 219.124 33.1851 217.285 32.6925C214.353 31.9075 211.074 32.5776 208.294 33.6056C204.07 35.1675 201.065 38.4375 199.572 42.6455C196.919 50.1258 199.112 58.1525 202.65 64.9243C203.937 67.389 205.372 69.7995 206.922 72.1387C206.012 71.834 205.11 71.5073 204.216 71.1556C200.239 69.4194 196.5 67.2051 193.101 64.5045C188.834 60.8685 185.068 56.6934 180.692 53.1708C176.002 49.3944 170.313 46.7798 164.257 46.3257C151.524 45.3709 137.7 54.1852 136.341 67.5424C135.193 78.8232 142.077 88.7167 151.463 94.3038C156.327 97.199 161.868 99.0663 167.414 100.114C168.737 100.364 170.062 100.575 171.387 100.763C144.731 108.214 116.719 115.991 116.132 115.932L112.352 152.181L121.829 153.357L124.666 245.252L226.914 268.43V268.47L227.003 268.45L227.092 268.43L329.341 245.252L332.177 153.357L341.655 152.181L337.88 115.978ZM201.049 88.9629C200.9 89.0196 200.752 89.0786 200.602 89.1347C200.088 89.3279 199.311 89.546 201.049 88.9629ZM201.167 88.9235C201.344 88.864 201.537 88.8 201.764 88.7246C201.608 88.7763 201.453 88.8314 201.297 88.8839L201.167 88.9235ZM267.099 75.5823C271.588 72.9223 275.544 69.4849 279.281 65.8658C281.002 64.1997 282.699 62.5071 284.488 60.9137C284.934 60.516 285.398 60.1373 285.845 59.7406C284.018 61.3623 285.592 59.9656 286.07 59.6066C286.929 58.9602 287.821 58.3579 288.741 57.8008C288.895 57.7195 289.05 57.6375 289.207 57.5618C289.632 57.3566 290.066 57.1725 290.501 56.9908C290.634 56.9509 290.765 56.9077 290.9 56.8711C291.042 56.8322 291.186 56.8004 291.33 56.7661C291.441 56.7526 291.551 56.7379 291.663 56.7273C291.717 56.7222 291.806 56.7165 291.907 56.7106L291.942 56.7122C292.168 56.7251 292.391 56.7503 292.615 56.7731C292.769 56.8087 292.922 56.8425 293.074 56.8845C293.351 56.961 293.625 57.047 293.896 57.1401C294.863 57.6008 295.777 58.1514 296.639 58.7874C298.041 60.0504 299.221 61.5114 300.162 63.1469C301.071 65.1368 301.586 67.2558 301.759 69.4351C301.758 71.7901 301.377 74.1051 300.653 76.3429C299.944 78.0764 299.04 79.7043 297.963 81.2343C297.049 82.3561 296.074 83.4237 295 84.3969C294.943 84.449 294.81 84.5641 294.668 84.686C294.5 84.8194 294.332 84.9528 294.261 85.006C293.553 85.5395 292.824 86.044 292.074 86.5182C291.823 86.677 291.568 86.8284 291.313 86.9808C291.499 86.8834 291.718 86.7695 291.982 86.6335C291.797 86.7287 291.616 86.8315 291.432 86.928L291.257 87.0153C291.173 87.0655 291.09 87.1178 291.006 87.1679C290.6 87.409 289.992 87.6801 291.097 87.0948C290.31 87.4971 289.51 87.8758 288.698 88.2228C288.273 88.404 287.845 88.5772 287.414 88.744C286.581 89.0133 285.747 89.2737 284.902 89.5024C283.983 89.751 283.057 89.9726 282.126 90.172C281.914 90.2174 281.7 90.2594 281.486 90.3007C281.315 90.3292 281.145 90.3576 280.974 90.3845C278.959 90.7005 276.93 90.9288 274.896 91.0706C273.964 91.1356 272.974 91.0793 272.045 91.1965C271.539 91.1946 271.033 91.189 270.527 91.1747C268.39 91.1144 266.256 90.9463 264.137 90.6568C263.64 90.5889 263.144 90.4951 262.646 90.4327C265.014 90.7294 262.844 90.4522 262.25 90.3292C261.189 90.1095 260.134 89.8572 259.089 89.5708C257.385 89.1037 255.712 88.5386 254.068 87.895C251.388 86.7234 248.825 85.3173 246.421 83.6642C253.694 82.1334 260.699 79.3745 267.099 75.5823ZM233.163 61.1164C234.048 54.0098 235.709 46.1276 239.715 40.2738C240.196 39.5696 240.715 38.8901 241.269 38.2409C241.539 37.9241 241.818 37.6143 242.107 37.3141L242.214 37.2156C242.415 37.0317 242.616 36.8485 242.824 36.6729C242.911 36.5998 243 36.5284 243.091 36.4589C243.225 36.5117 243.359 36.5619 243.49 36.6231C243.668 36.706 243.843 36.7932 244.012 36.8921L244.06 36.9194L244.162 36.997C244.844 37.4965 245.458 38.0756 245.978 38.743C247.042 40.1084 247.569 41.8809 247.873 43.5634C249.222 51.0266 246.726 59.023 243.36 65.6202C242.249 67.7961 240.98 69.881 239.608 71.9014C237.71 70.3897 235.4 69.3351 232.709 68.8554C232.685 66.2726 232.843 63.6838 233.163 61.1164ZM207.64 46.1076C207.825 43.0188 208.814 39.4929 210.835 37.0862L210.926 36.99C211 37.0399 211.075 37.0892 211.143 37.1382C211.808 37.6225 212.381 38.2272 212.889 38.8713C214.994 41.5349 216.296 44.9642 217.324 48.1637C218.464 51.7125 219.299 55.3675 219.885 59.0473C220.47 62.7173 220.774 66.4239 220.826 70.1333C219.694 70.57 218.604 71.0937 217.57 71.6938C216.283 69.9052 215.066 68.0641 213.932 66.171C210.302 60.1141 207.209 53.3336 207.64 46.1076ZM168.298 87.9004C165.475 86.6691 162.817 85.1286 160.399 83.2171C158.13 81.2099 156.178 78.8922 154.673 76.2582C153.416 73.657 152.651 70.8698 152.44 67.9878C152.447 65.9987 152.728 64.0428 153.322 62.1464C153.796 61.0289 154.378 59.9718 155.068 58.9752C155.405 58.5797 155.751 58.1931 156.123 57.8287C156.258 57.6966 156.4 57.5723 156.54 57.4467L156.665 57.3544C156.886 57.1954 157.116 57.0501 157.344 56.9021C157.462 56.8481 157.579 56.7945 157.697 56.7429L157.755 56.7279L157.878 56.7182C158.144 56.7278 158.41 56.736 158.674 56.7615L158.867 56.7839C159.176 56.8546 159.489 56.9158 159.793 56.9988C160.329 57.1447 160.855 57.3216 161.376 57.5108C163.728 58.5757 165.888 59.9722 167.908 61.5762C173.08 65.9869 177.536 71.1506 183.17 75.0344C188.734 78.87 195.192 81.6197 201.75 83.2093C204.043 83.765 206.378 84.1918 208.726 84.5064C208.711 84.6881 208.698 84.8706 208.689 85.0545C208.25 85.3532 207.816 85.6595 207.366 85.9418C207.041 86.1456 206.714 86.3448 206.384 86.54L206.349 86.5605C204.876 87.3321 203.376 88.0428 201.832 88.6613C201.587 88.7594 201.34 88.8516 201.093 88.9456C200.275 89.2161 199.45 89.4706 198.619 89.6986C197.756 89.9353 196.886 90.1478 196.012 90.3389C195.905 90.3621 195.638 90.4155 195.375 90.4676C195.087 90.5164 194.796 90.5657 194.673 90.5841C192.684 90.8836 190.678 91.0737 188.669 91.1671C188.305 91.1839 187.934 91.1833 187.567 91.1981H187.51C186.44 91.1931 185.369 91.1616 184.3 91.1052C182.302 90.9998 180.308 90.8064 178.327 90.5322C178.078 90.4978 177.831 90.459 177.583 90.4215C177.306 90.3322 176.887 90.3077 176.632 90.2581C175.639 90.0647 174.651 89.8459 173.67 89.5991C171.846 89.1401 170.054 88.5712 168.298 87.9004Z" fill="#F08899"/>
<path d="M150.442 119.355L214.819 100.184C213.332 98.895 212.081 97.3352 211.103 95.5696C203.76 99.0186 195.699 100.993 187.609 101.466C182.153 101.786 176.759 101.527 171.386 100.764C144.731 108.215 116.718 115.992 116.131 115.933L150.442 119.355Z" fill="#E91E63"/>
<path d="M188.314 161.607L171.893 159.569L152.036 157.105L147.084 156.491L121.829 153.357L124.666 245.253L226.914 268.43V166.419V166.397L188.314 161.607Z" fill="#EC7189"/>
<path d="M337.88 115.978L338.054 115.933L276.276 101.106C272.804 101.477 269.33 101.629 265.935 101.605C257.561 101.546 249.184 99.866 241.603 96.4549C240.585 97.719 239.404 98.8638 238.096 99.8591L303.565 119.356L306.922 156.491L301.97 157.105L271.282 160.913L267.559 122.947L231.361 103.289C229.533 103.835 227.624 104.131 225.696 104.131C224.357 104.131 223.077 103.985 221.861 103.715L186.448 122.947L227.003 126.993L226.914 127.002V152.181V166.397V166.419V268.431V268.471L227.003 268.451L227.092 268.431L329.341 245.253L332.177 153.357L341.655 152.181L337.88 115.978Z" fill="#EC6672"/>
<path d="M311.455 52.051C308.834 49.7306 305.922 47.9631 302.505 47.0593C297.975 45.8609 293.181 46.1053 288.668 47.2526C280.75 49.266 274.323 54.2284 268.549 59.793C267.341 60.9573 266.149 62.1379 264.933 63.2932C264.369 63.8294 263.799 64.3603 263.221 64.8814C262.954 65.1217 262.686 65.36 262.415 65.5957C262.234 65.753 262.051 65.9068 261.87 66.0637C261.182 66.6611 262.218 65.8095 262.448 65.5942C262.025 66.0841 261.3 66.4915 260.782 66.8728C260.115 67.3648 259.434 67.8395 258.742 68.2959C258.142 68.6912 257.533 69.0729 256.916 69.4413C256.75 69.5405 256.582 69.6369 256.414 69.7338L256.395 69.7442C255.074 70.4401 253.721 71.077 252.344 71.6542C251.759 71.8992 251.168 72.1246 250.576 72.3492C250.303 72.4395 250.029 72.5309 249.754 72.6169C248.837 72.9029 247.91 73.155 246.98 73.3917C248.63 71.0891 250.176 68.7144 251.532 66.2152C255.571 58.7741 258.493 49.9953 257.121 41.427C256.491 37.4974 254.3 33.7472 250.464 32.2252C245.258 30.1593 238.859 32.3245 234.927 36.0212C231.315 39.4172 228.925 43.6729 227.26 48.2431C227.07 47.5608 226.885 46.8776 226.675 46.2018C225.541 42.5524 224.032 38.9313 221.709 35.8676C220.578 34.3764 219.124 33.1851 217.285 32.6925C214.353 31.9076 211.073 32.5776 208.293 33.6056C204.069 35.1675 201.065 38.4375 199.572 42.6455C196.918 50.1258 199.111 58.1525 202.649 64.9243C203.937 67.389 205.371 69.7995 206.922 72.1387C206.012 71.834 205.109 71.5074 204.216 71.1556C200.239 69.4194 196.5 67.2051 193.101 64.5045C188.833 60.8685 185.067 56.6934 180.692 53.1709C176.001 49.3944 170.313 46.7798 164.257 46.3257C151.524 45.3709 137.7 54.1852 136.34 67.5424C135.193 78.8232 142.076 88.7167 151.463 94.3038C156.326 97.199 161.867 99.0663 167.414 100.114C168.737 100.364 170.061 100.575 171.386 100.763C176.759 101.527 182.153 101.786 187.609 101.466C195.699 100.992 203.76 99.0182 211.103 95.5692C212.081 97.3349 213.332 98.8945 214.819 100.184L150.441 119.356L147.084 156.491L152.036 157.105L171.892 159.569L182.724 160.913L186.447 122.947L221.86 103.715C223.076 103.985 224.357 104.13 225.696 104.13C227.624 104.13 229.533 103.835 231.361 103.289L267.558 122.947L271.282 160.913L301.97 157.105L306.922 156.491L303.564 119.355L238.096 99.8589C239.404 98.8635 240.585 97.7188 241.603 96.4547C249.184 99.8659 257.561 101.546 265.934 101.605C269.33 101.629 272.804 101.477 276.275 101.105C288.459 99.8015 300.62 95.7757 309.308 87.0126C313.979 82.3011 317.486 75.977 317.918 69.2639C318.326 62.9172 316.319 56.3569 311.455 52.051ZM200.602 89.1347C200.088 89.3279 199.311 89.546 201.048 88.9629C200.899 89.0196 200.751 89.0786 200.602 89.1347ZM201.297 88.8839L201.166 88.9235C201.344 88.864 201.536 88.8 201.764 88.7246C201.608 88.7763 201.453 88.8314 201.297 88.8839ZM206.384 86.5402L206.349 86.5607C204.876 87.3323 203.376 88.043 201.832 88.6615C201.587 88.7596 201.34 88.8518 201.093 88.9457C200.275 89.2163 199.45 89.4708 198.619 89.6987C197.756 89.9354 196.886 90.1479 196.012 90.339C195.905 90.3622 195.638 90.4156 195.375 90.4678C195.087 90.5166 194.795 90.5659 194.673 90.5843C192.684 90.8838 190.678 91.0739 188.669 91.1672C188.305 91.1841 187.934 91.1834 187.567 91.1982H187.51C186.44 91.1933 185.369 91.1618 184.3 91.1054C182.302 91 180.308 90.8065 178.327 90.5323C178.078 90.498 177.831 90.4592 177.583 90.4217C177.306 90.3323 176.887 90.3079 176.632 90.2583C175.639 90.0648 174.651 89.8461 173.67 89.5992C171.846 89.1401 170.054 88.5712 168.299 87.9002C165.475 86.6689 162.818 85.1284 160.399 83.2169C158.13 81.2097 156.178 78.8921 154.673 76.2581C153.416 73.6568 152.651 70.8696 152.44 67.9876C152.448 65.9986 152.728 64.0427 153.322 62.1463C153.796 61.0288 154.378 59.9717 155.068 58.975C155.405 58.5795 155.751 58.1929 156.123 57.8286C156.258 57.6965 156.4 57.5722 156.54 57.4466L156.665 57.3542C156.886 57.1953 157.116 57.05 157.344 56.902C157.462 56.8479 157.579 56.7944 157.698 56.7427L157.755 56.7278L157.878 56.7181C158.144 56.7276 158.41 56.7359 158.674 56.7613L158.867 56.7837C159.176 56.8545 159.489 56.9157 159.793 56.9986C160.329 57.1446 160.855 57.3215 161.376 57.5107C163.728 58.5755 165.888 59.972 167.908 61.5761C173.08 65.9868 177.536 71.1505 183.17 75.0342C188.734 78.8698 195.192 81.6195 201.75 83.2091C204.043 83.7649 206.378 84.1917 208.726 84.5063C208.711 84.6879 208.698 84.8704 208.689 85.0543C208.25 85.353 207.816 85.6594 207.366 85.9417C207.041 86.1458 206.714 86.345 206.384 86.5402ZM217.57 71.6938C216.283 69.9052 215.066 68.0641 213.931 66.171C210.301 60.114 207.209 53.3336 207.64 46.1074C207.824 43.0186 208.813 39.4927 210.835 37.086L210.926 36.9899C210.999 37.0398 211.075 37.0891 211.142 37.138C211.808 37.6224 212.38 38.2271 212.889 38.8712C214.993 41.5347 216.296 44.964 217.324 48.1636C218.464 51.7124 219.299 55.3674 219.885 59.0472C220.469 62.7171 220.773 66.4238 220.826 70.1331C219.694 70.5698 218.604 71.0937 217.57 71.6938ZM232.709 68.8554C232.685 66.2728 232.843 63.6838 233.163 61.1164C234.048 54.0098 235.708 46.1276 239.714 40.2738C240.196 39.5696 240.714 38.8901 241.268 38.2409C241.539 37.9241 241.818 37.6143 242.107 37.3141L242.214 37.2156C242.415 37.0317 242.616 36.8485 242.824 36.6729C242.911 36.5998 243 36.5284 243.09 36.4589C243.224 36.5117 243.359 36.5619 243.49 36.6231C243.667 36.706 243.842 36.7932 244.011 36.8921L244.059 36.9194L244.162 36.997C244.843 37.4965 245.458 38.0756 245.978 38.743C247.042 40.1084 247.568 41.8809 247.872 43.5634C249.221 51.0266 246.726 59.023 243.359 65.6202C242.249 67.7961 240.98 69.881 239.607 71.9014C237.71 70.3895 235.4 69.335 232.709 68.8554ZM300.652 76.343C299.944 78.0764 299.039 79.7043 297.962 81.2343C297.049 82.3561 296.073 83.4237 295 84.3969C294.942 84.449 294.809 84.5641 294.668 84.686C294.499 84.8194 294.331 84.9528 294.261 85.006C293.553 85.5395 292.823 86.044 292.074 86.5182C291.823 86.677 291.567 86.8284 291.312 86.9808C291.498 86.8834 291.717 86.7695 291.981 86.6335C291.797 86.7287 291.615 86.8315 291.431 86.928L291.256 87.0153C291.172 87.0655 291.089 87.1178 291.005 87.1679C290.599 87.409 289.991 87.6801 291.096 87.0948C290.309 87.4971 289.51 87.8758 288.697 88.2228C288.272 88.404 287.844 88.5773 287.413 88.744C286.581 89.0133 285.746 89.2737 284.901 89.5024C283.982 89.751 283.056 89.9726 282.126 90.172C281.913 90.2174 281.699 90.2594 281.485 90.3007C281.314 90.3292 281.144 90.3576 280.973 90.3845C278.958 90.7005 276.93 90.9288 274.895 91.0706C273.963 91.1356 272.973 91.0793 272.044 91.1965C271.538 91.1946 271.032 91.189 270.527 91.1747C268.389 91.1144 266.255 90.9463 264.137 90.6568C263.639 90.5889 263.144 90.4951 262.646 90.4327C265.014 90.7294 262.843 90.4522 262.249 90.3292C261.188 90.1095 260.133 89.8572 259.088 89.5708C257.384 89.1037 255.712 88.5386 254.068 87.895C251.387 86.7234 248.824 85.3173 246.421 83.6642C253.693 82.1334 260.699 79.3743 267.099 75.5823C271.588 72.9223 275.543 69.4849 279.281 65.8658C281.001 64.1997 282.698 62.5071 284.487 60.9137C284.934 60.516 285.398 60.1373 285.845 59.7406C284.018 61.3623 285.592 59.9657 286.069 59.6066C286.929 58.9602 287.821 58.3579 288.74 57.8008C288.895 57.7195 289.049 57.6375 289.206 57.5618C289.632 57.3566 290.065 57.1725 290.5 56.9909C290.633 56.951 290.765 56.9077 290.899 56.8711C291.042 56.8322 291.186 56.8004 291.329 56.7661C291.44 56.7526 291.551 56.7379 291.662 56.7273C291.716 56.7222 291.805 56.7165 291.907 56.7106L291.942 56.7122C292.168 56.7251 292.391 56.7503 292.615 56.7731C292.768 56.8087 292.921 56.8425 293.074 56.8845C293.351 56.961 293.624 57.047 293.896 57.1401C294.863 57.6008 295.776 58.1514 296.638 58.7874C298.04 60.0504 299.221 61.5114 300.161 63.1469C301.07 65.1368 301.586 67.2558 301.759 69.4351C301.757 71.7901 301.376 74.1049 300.652 76.343Z" fill="#FBBF5B"/>
<path d="M214.257 74.0447L214.281 74.048C215.284 73.1675 216.389 72.3796 217.571 71.6938C216.283 69.9052 215.066 68.0641 213.932 66.171C210.302 60.114 207.21 53.3336 207.641 46.1074C207.825 43.0186 208.814 39.4927 210.835 37.086L210.927 36.9899C211 37.0398 211.076 37.0891 211.143 37.138C211.809 37.6224 212.381 38.2271 212.89 38.8712C214.994 41.5347 216.296 44.964 217.324 48.1636C218.464 51.7124 219.299 55.3674 219.886 59.0472C220.47 62.7171 220.774 66.4238 220.826 70.1331C223.484 69.1075 226.361 68.5515 229.222 68.5515C230.446 68.5515 231.607 68.6586 232.71 68.8552C232.686 66.2726 232.844 63.6836 233.163 61.1162C234.048 54.0097 235.709 46.1274 239.715 40.2737C240.197 39.5695 240.715 38.8899 241.269 38.2407C241.539 37.9239 241.819 37.6141 242.107 37.314L242.215 37.2154C242.415 37.0315 242.616 36.8484 242.825 36.6727C242.912 36.5996 243 36.5282 243.091 36.4588C243.225 36.5115 243.36 36.5618 243.491 36.623C243.668 36.7058 243.843 36.7931 244.012 36.8919L244.06 36.9193L244.162 36.9969C244.844 37.4963 245.459 38.0754 245.979 38.7429C247.042 40.1082 247.569 41.8808 247.873 43.5632C249.222 51.0265 246.726 59.0228 243.36 65.6201C242.249 67.7959 240.98 69.8809 239.608 71.9013C240.495 72.608 241.294 73.4104 241.991 74.3111C242.222 74.2842 242.454 74.266 242.684 74.2361C243.338 74.1515 243.987 74.0404 244.638 73.9395C244.898 73.8854 245.158 73.8322 245.416 73.7745C245.94 73.6576 246.46 73.5239 246.98 73.3917C248.63 71.0891 250.176 68.7144 251.533 66.2152C255.571 58.7741 258.494 49.9953 257.121 41.427C256.492 37.4974 254.3 33.7472 250.464 32.2252C245.258 30.1593 238.86 32.3245 234.928 36.0212C231.316 39.4172 228.926 43.6729 227.26 48.2431C227.071 47.5608 226.885 46.8776 226.676 46.2018C225.542 42.5524 224.033 38.9313 221.71 35.8676C220.579 34.3764 219.125 33.1851 217.285 32.6925C214.354 31.9076 211.074 32.5776 208.294 33.6056C204.07 35.1675 201.066 38.4375 199.572 42.6455C196.919 50.1258 199.112 58.1525 202.65 64.9243C203.937 67.389 205.372 69.7995 206.922 72.1387C208.686 72.7293 210.475 73.241 212.292 73.6463C212.945 73.7923 213.6 73.9177 214.257 74.0447Z" fill="#F8AA37"/>
<path d="M303.565 119.356L238.096 99.8591C239.404 98.8636 240.585 97.719 241.603 96.4549C244.027 93.4466 245.519 89.7595 245.519 85.7629C245.519 81.191 244.274 77.2621 241.991 74.3113C241.294 73.4104 240.495 72.6082 239.608 71.9014C237.71 70.3897 235.4 69.3352 232.71 68.8554C231.607 68.6588 230.445 68.5516 229.222 68.5516C226.361 68.5516 223.484 69.1077 220.826 70.1333C219.694 70.57 218.604 71.0937 217.57 71.6938C216.389 72.3796 215.284 73.1676 214.281 74.048C211.195 76.7564 209.084 80.3389 208.727 84.5066C208.711 84.6883 208.698 84.8708 208.689 85.0547C208.678 85.2896 208.667 85.5244 208.667 85.7627C208.667 89.3752 209.534 92.7349 211.104 95.5695C212.081 97.3352 213.332 98.8948 214.819 100.184L150.442 119.356L147.084 156.491L152.036 157.105L171.893 159.569L182.725 160.913L186.448 122.947L221.861 103.715C223.077 103.985 224.357 104.13 225.696 104.13C227.624 104.13 229.533 103.835 231.361 103.289L267.559 122.947L271.282 160.913L301.971 157.105L306.922 156.491L303.565 119.356Z" fill="#FDCE74"/>
<path d="M267.559 122.947L231.361 103.289C229.533 103.835 227.624 104.131 225.696 104.131C224.357 104.131 223.077 103.985 221.861 103.716L186.448 122.947L227.003 126.993L267.559 122.947Z" fill="#E91E63"/>
<path d="M241.603 96.4547C240.585 97.7188 239.404 98.8636 238.096 99.8589L303.565 119.355L337.875 115.933L337.88 115.977L338.054 115.933L276.275 101.105C272.804 101.477 269.33 101.629 265.934 101.605C257.561 101.546 249.184 99.8661 241.603 96.4547Z" fill="#E91E63"/>
<path d="M306.922 156.491L301.971 157.105L302.95 251.235L267.01 259.382L265.693 161.607L226.914 166.419V268.43V268.471L227.003 268.451L227.093 268.43L329.341 245.253L332.177 153.357L306.922 156.491Z" fill="#D85061"/>
<path d="M271.282 160.913L265.693 161.607L267.01 259.382L302.95 251.235L301.971 157.105L271.282 160.913Z" fill="#FBBF5B"/>
<path d="M152.036 157.105L151.057 251.235L186.997 259.382L188.314 161.607L171.893 159.569L152.036 157.105Z" fill="#FBBF5B"/>
</g>
<defs>
<clipPath id="clip0_0_2142">
<rect width="453" height="300" fill="white"/>
</clipPath>
<clipPath id="clip1_0_2142">
<rect width="519.557" height="311.232" fill="white" transform="translate(-11 -6)"/>
</clipPath>
</defs>
</svg>
